<svg width="80" height="80" viewBox="0 0 80 80" fill="none" xmlns="http://www.w3.org/2000/svg">
<path d="M49.0021 11.8195C56.6275 12.525 63.1 16.5914 68.0585 21.3297C73.5032 26.5277 77.4062 32.7689 79.4062 37.1536C80.1979 38.9216 80.1979 41.0786 79.4062 42.8466C77.4062 47.2313 73.5032 53.4725 68.0585 58.6705C63.1 63.4088 56.6275 67.4753 49.0021 68.1825L38.2239 78.4724C36.7516 79.8868 34.7515 79.9752 33.182 78.7376C31.6264 77.4823 30.8347 75.1308 31.1958 72.8324L32.5431 64.2398C29.7374 62.6486 27.4318 60.7214 25.1539 58.6705C23.1399 56.6373 21.1259 54.4449 19.612 52.2525L6.68364 61.8529C4.94607 63.1436 2.74459 62.79 1.31605 60.9866C0.621032 60.1101 0.172712 58.9661 0.0406629 57.7321C-0.0913867 56.4982 0.100217 55.2432 0.585742 54.162L6.94477 40.0001L0.585742 25.8382C0.100217 24.757 -0.0913867 23.5021 0.0406629 22.2681C0.172712 21.0341 0.621032 19.8901 1.31605 19.0136C2.74459 17.2102 4.94607 16.8566 6.68364 18.1473L19.612 27.7477C21.1259 25.5553 23.1399 23.363 25.1539 21.3297C27.4318 19.2788 29.7374 17.3517 32.5431 15.7604L31.1958 7.16429C30.8347 4.86409 31.6264 2.51792 33.182 1.26792C34.7515 0.016155 36.7516 0.120469 38.2239 1.52782L49.0021 11.8195ZM57.7803 34.3424C55.3219 34.3424 53.3357 36.8707 53.3357 40.0001C53.3357 43.1295 55.3219 45.6578 57.7803 45.6578C60.2387 45.6578 62.2249 43.1295 62.2249 40.0001C62.2249 36.8707 60.2387 34.3424 57.7803 34.3424Z" fill="#34623F"/>
</svg>
