<svg width="80" height="80" viewBox="0 0 80 80" fill="none" xmlns="http://www.w3.org/2000/svg">
<g clip-path="url(#clip0_1_439)">
<path d="M75.8613 1.89658C75.0835 -0.0372064 72.8613 -0.114558 71.9308 1.71094C67.6252 10.0494 59.9169 15.2474 51.1113 15.2474H40.0002C25.278 15.2474 13.3335 28.5519 13.3335 44.9504C13.3335 46.0333 13.4447 47.0699 13.5419 48.1218C22.403 41.0519 35.1946 35.0494 53.3335 35.0494C54.5558 35.0494 55.5558 36.1633 55.5558 37.5247C55.5558 38.8861 54.5558 39.9999 53.3335 39.9999C18.4169 39.9999 3.61132 63.8397 0.333547 72.797C-0.58312 75.3186 0.500213 78.1961 2.7641 79.2326C5.04188 80.2846 7.62521 79.0624 8.56966 76.5562C8.77799 75.9993 11.4724 69.146 18.5558 62.5401C23.0558 69.3316 31.6113 75.8137 42.8474 74.4832C64.653 72.7196 80.0002 50.9374 80.0002 24.2666C80.0002 16.5005 78.5002 8.45599 75.8613 1.89658Z" fill="#34623F"/>
</g>
<defs>
<clipPath id="clip0_1_439">
<rect width="80" height="79.2079" fill="white" transform="translate(0 0.396027)"/>
</clipPath>
</defs>
</svg>
