<svg width="80" height="80" viewBox="0 0 80 80" fill="none" xmlns="http://www.w3.org/2000/svg">
<g clip-path="url(#clip0_1_448)">
<path d="M25 49.901H26.875V52.3762C26.875 53.7438 27.9937 54.8515 29.375 54.8515H35.625C37.0062 54.8515 38.125 53.7438 38.125 52.3762V49.901H40C42.7609 49.901 45 47.6841 45 44.9505V10.297C45 7.56342 42.7609 5.34652 40 5.34652V2.87127C40 1.5037 38.8812 0.396027 37.5 0.396027H27.5C26.1187 0.396027 25 1.5037 25 2.87127V5.34652C22.2391 5.34652 20 7.56342 20 10.297V44.9505C20 47.6841 22.2391 49.901 25 49.901ZM72.5 69.703H72.2984C77.0687 64.4415 80 57.5124 80 49.901C80 33.521 66.5437 20.198 50 20.198V30.099C61.0281 30.099 70 38.982 70 49.901C70 60.8199 61.0281 69.703 50 69.703H7.5C3.35781 69.703 0 73.0275 0 77.1287C0 78.4963 1.11875 79.604 2.5 79.604H77.5C78.8812 79.604 80 78.4963 80 77.1287C80 73.0275 76.6422 69.703 72.5 69.703ZM16.25 64.7525H48.75C49.4406 64.7525 50 64.1986 50 63.5148V61.0396C50 60.3558 49.4406 59.802 48.75 59.802H16.25C15.5594 59.802 15 60.3558 15 61.0396V63.5148C15 64.1986 15.5594 64.7525 16.25 64.7525Z" fill="#34623F"/>
</g>
<defs>
<clipPath id="clip0_1_448">
<rect width="80" height="79.2079" fill="white" transform="translate(0 0.396027)"/>
</clipPath>
</defs>
</svg>
