<svg width="52" height="43" viewBox="0 0 52 43" fill="none" xmlns="http://www.w3.org/2000/svg">
<g clip-path="url(#clip0_1_534)">
<path d="M50.5545 41.9369H40.0662C39.3243 41.9369 38.7247 41.4414 38.7247 40.8282V26.8675C38.7247 22.0796 35.7367 22.0796 34.7509 22.0796C32.0983 22.0796 30.9702 23.81 30.6043 24.5576C30.4315 24.8936 30.3502 25.4648 30.3502 26.2628V40.8367C30.3502 41.4499 29.7506 41.9454 29.0088 41.9454H18.5102C18.1545 41.9454 17.809 41.8278 17.5549 41.6179C17.3009 41.4079 17.1586 41.1222 17.1687 40.8282C17.1687 40.593 17.311 17.1825 17.1687 14.7885C17.1484 14.4861 17.2805 14.1921 17.5346 13.9737C17.7887 13.7553 18.1342 13.6293 18.5102 13.6293H29.0088C29.7506 13.6293 30.3502 14.1248 30.3502 14.738V15.3932C32.1186 14.0913 34.6696 13.0161 38.4706 13.0161C46.8754 13.0161 51.896 17.8208 51.896 25.8679V40.8282C51.896 41.4414 51.2964 41.9369 50.5545 41.9369ZM41.4077 39.7194L49.2232 39.7192V25.8678C49.2232 19.1058 45.3104 15.2335 38.4807 15.2335C33.9175 15.2335 31.702 17.1151 30.3096 18.8371C30.147 19.2907 29.6287 19.6267 29.0189 19.6267H28.9478C28.4599 19.6267 28.0127 19.4083 27.7791 19.0555C27.5961 18.7783 27.5554 18.4591 27.6774 18.1651V15.8384H19.8823C19.9534 20.4667 19.8823 35.4438 19.862 39.711H27.6672V26.2543C27.6672 25.1371 27.8095 24.3307 28.1144 23.7175C29.2933 21.3068 31.7731 19.8536 34.7407 19.8536C38.9686 19.8536 41.3975 22.4072 41.3975 26.8591V39.7194L41.4077 39.7194ZM12.7071 41.9367H2.20861C1.4667 41.9367 0.867118 41.4412 0.867118 40.828V14.738C0.867118 14.1248 1.4667 13.6292 2.20861 13.6292H12.7071C13.449 13.6292 14.0486 14.1248 14.0486 14.7379V40.828C14.0486 41.4412 13.449 41.9367 12.7071 41.9367ZM3.55019 39.7193H11.3656V15.8467H3.55024L3.55019 39.7193ZM7.46293 12.2851L7.39174 12.2851C3.25535 12.2851 0.24707 9.91632 0.24707 6.65716C0.24707 3.40641 3.30617 1.0376 7.53402 1.0376C11.6907 1.0376 14.6584 3.33915 14.7397 6.63195C14.7397 9.91632 11.6806 12.2851 7.46293 12.2851ZM7.53402 3.2636C4.7798 3.2636 2.93015 4.6328 2.93015 6.66562C2.93015 8.66476 4.75953 10.0675 7.39179 10.0675H7.46288C10.207 10.0675 12.0566 8.69835 12.0566 6.66558C12.0058 4.60759 10.2273 3.2636 7.53402 3.2636Z" fill="#34623F"/>
</g>
<defs>
<clipPath id="clip0_1_534">
<rect width="51.6286" height="42.6716" fill="white" transform="translate(0.24707 0.164307)"/>
</clipPath>
</defs>
</svg>
