<svg width="53" height="35" viewBox="0 0 53 35" fill="none" xmlns="http://www.w3.org/2000/svg">
<path d="M35.3965 2.77643C38.0626 2.77643 40.4696 3.67803 42.1653 5.12553C44.2748 4.78816 46.2633 4.17342 48.0502 3.32199C47.3589 5.05689 45.8883 6.51235 43.9756 7.43313C45.8472 7.25111 47.6388 6.85373 49.3015 6.25966C48.0551 7.74916 46.4861 9.06065 44.6742 10.1088C44.6912 10.4268 44.7009 10.7482 44.7009 11.0682C44.7009 20.8913 35.3731 32.2212 18.3162 32.2212C13.0808 32.2212 8.20429 30.9865 4.10309 28.8782C4.83678 28.9487 5.57481 28.9839 6.31345 28.9835C10.6575 28.9835 14.6579 27.796 17.8322 25.7998C13.7721 25.7425 10.3453 23.5909 9.16991 20.6392C9.74555 20.7284 10.3299 20.7732 10.9156 20.7732C11.7586 20.7732 12.5798 20.6832 13.3559 20.5125C9.11425 19.8318 5.91731 16.8268 5.91731 13.223V13.1277C7.1685 13.6851 8.59716 14.0198 10.1194 14.0584C7.62993 12.7236 5.99314 10.4513 5.99314 7.87168C5.99314 6.50819 6.45139 5.23071 7.24922 4.13658C11.8216 8.63176 18.6543 11.5921 26.3623 11.9035C26.2033 11.3607 26.1211 10.7873 26.1211 10.2106C26.1211 6.10414 30.2731 2.77643 35.3965 2.77643V2.77643ZM49.3014 6.26103H49.3094H49.3014ZM35.3963 0.109619C29.0605 0.109619 23.8115 3.93543 23.0031 8.87867C17.8193 8.0179 13.1049 5.74964 9.71761 2.42193C9.4148 2.1242 9.03686 1.88483 8.61029 1.7206C8.18372 1.55636 7.71884 1.47124 7.24826 1.47119C7.16375 1.47121 7.07927 1.47388 6.995 1.47919C6.48353 1.51305 5.98915 1.64705 5.55276 1.87012C5.11636 2.09318 4.75048 2.39891 4.48537 2.76201C3.36041 4.30477 2.76602 6.07197 2.76625 7.87326C2.76625 9.0754 3.02757 10.2462 3.52293 11.341C2.99535 11.8257 2.69122 12.4598 2.69122 13.1292V13.2245C2.69122 15.8369 3.9408 18.2611 6.01562 20.078C5.89623 20.5354 5.92285 21.0141 6.10517 21.4728C6.82076 23.2723 8.12357 24.8232 9.8128 26.0046C8.67853 26.2133 7.50806 26.3187 6.31329 26.3187C5.68165 26.3187 5.06695 26.29 4.48532 26.2313C4.35625 26.2179 4.22879 26.2133 4.10052 26.2133C2.74527 26.2133 1.51506 26.9194 1.05847 27.9962C0.557507 29.1763 1.11337 30.4844 2.39758 31.1452C7.1636 33.5962 12.6685 34.8903 18.3153 34.8903C36.6693 34.8903 47.7098 23.0149 47.9244 11.4149C49.4305 10.385 50.761 9.19141 51.8796 7.86651C52.3044 7.40549 52.534 6.84181 52.533 6.26232C52.533 5.35489 51.9837 4.5528 51.1472 4.0707C51.5094 3.04458 51.0963 1.93379 50.0879 1.25504C49.499 0.858997 48.7771 0.65764 48.051 0.65764C47.4851 0.657201 46.9291 0.78025 46.4392 1.01435C45.3728 1.52245 44.2321 1.92449 43.0309 2.2139C40.8577 0.862414 38.1633 0.109661 35.3963 0.109619V0.109619Z" fill="#34623F"/>
</svg>
