<svg width="27" height="43" viewBox="0 0 27 43" fill="none" xmlns="http://www.w3.org/2000/svg">
<path d="M16.8113 3.51906C17.0033 3.51906 17.1138 3.52573 17.1138 3.52573H21.3272L21.3054 7.52619H17.1203C14.8172 7.52619 14.8704 9.15167 14.8704 9.15167V15.4937H23.0197L21.8822 19.4889H14.8438V39.4818H10.0085L10.0052 19.4889H3.58149L3.56859 15.4937H10.0076V9.27702C10.0084 3.8564 15.4553 3.51902 16.8113 3.51902V3.51906ZM21.3272 3.52569H21.3352H21.3272ZM16.8113 0.852051C15.6513 0.852051 13.3844 1.01078 11.237 2.08023C9.20407 3.09102 6.78156 5.16121 6.78156 9.27639V12.8261H3.56929C2.71177 12.8261 1.88975 13.1088 1.28311 13.6102C0.983382 13.8589 0.746011 14.1541 0.584608 14.4788C0.423205 14.8035 0.340948 15.1514 0.342552 15.5024L0.355459 19.4976C0.361913 20.9664 1.80509 22.1552 3.58225 22.1552H6.77919L6.78242 39.4812C6.78242 40.954 8.22726 42.1482 10.0092 42.1482H14.8446C16.6266 42.1482 18.0714 40.954 18.0714 39.4812V22.1552H21.883C23.3149 22.1552 24.5757 21.3751 24.9791 20.2397L26.1165 16.2445C26.4029 15.4385 26.2125 14.567 25.6027 13.8956C25.3026 13.5636 24.9129 13.294 24.4646 13.1083C24.0163 12.9227 23.5218 12.826 23.0204 12.8261H18.0979V10.1945L21.3062 10.1932C23.0817 10.1932 24.5249 9.00703 24.5329 7.53819L24.5547 3.67308C24.5579 3.62401 24.5596 3.57488 24.5596 3.52573C24.5596 2.0529 23.118 0.85876 21.3361 0.85876H17.205C17.1122 0.854759 16.9783 0.852092 16.8113 0.852051Z" fill="#34623F"/>
</svg>
