<svg width="52" height="43" viewBox="0 0 52 43" fill="none" xmlns="http://www.w3.org/2000/svg">
<path d="M26.0953 0.372559C33.0531 0.372559 33.9102 0.41423 36.6328 0.497573C39.305 0.580916 41.1705 0.955959 42.8343 1.49769C44.5485 2.03942 45.9602 2.74783 47.372 3.91463C48.7837 5.08143 49.6408 6.24823 50.2962 7.66506C50.9517 9.04022 51.4054 10.5821 51.5063 12.7906C51.6071 15.0409 51.6575 15.7493 51.6575 21.5C51.6575 27.2506 51.6071 27.9591 51.5063 30.2093C51.4054 32.4179 50.9517 33.9597 50.2962 35.3349C49.6408 36.7517 48.7837 37.9185 47.372 39.0853C45.9602 40.2521 44.5485 40.9605 42.8343 41.5023C41.1705 42.044 39.305 42.419 36.6328 42.5024C33.9102 42.5857 33.0531 42.6274 26.0953 42.6274C19.1375 42.6274 18.2804 42.5857 15.5578 42.5024C12.8856 42.419 11.0201 42.044 9.35634 41.5023C7.6421 40.9605 6.23038 40.2521 4.81866 39.0853C3.40694 37.9185 2.54982 36.7517 1.89438 35.3349C1.23894 33.9597 0.785174 32.4179 0.684337 30.2093C0.5835 27.9591 0.533081 27.2506 0.533081 21.5C0.533081 15.7493 0.5835 15.0409 0.684337 12.7906C0.785174 10.5821 1.23894 9.04022 1.89438 7.66506C2.54982 6.24823 3.40694 5.08143 4.81866 3.91463C6.23038 2.74783 7.6421 2.03942 9.35634 1.49769C11.0201 0.955959 12.8856 0.580916 15.5578 0.497573C18.2804 0.41423 19.1375 0.372559 26.0953 0.372559ZM26.0953 3.12287C18.835 3.12287 17.9779 3.16455 15.1545 3.24789C12.5327 3.33123 11.0706 3.74795 10.1126 4.03965C7.6421 4.87307 5.97829 6.24823 4.96992 8.29013C4.61699 9.08189 4.1128 10.2904 4.01196 12.4573C3.91113 14.7909 3.86071 15.4993 3.86071 21.5C3.86071 27.5007 3.91113 28.2091 4.01196 30.5427C4.1128 32.7096 4.61699 33.9181 4.96992 34.7098C5.97829 36.7517 7.6421 38.1269 10.1126 38.9603C11.0706 39.252 12.5327 39.6687 15.1545 39.7521C17.9779 39.8354 18.835 39.8771 26.0953 39.8771C33.3556 39.8771 34.2127 39.8354 37.0361 39.7521C39.6579 39.6687 41.1201 39.252 42.078 38.9603C44.5485 38.1269 46.2123 36.7517 47.2207 34.7098C47.5736 33.9181 48.0778 32.7096 48.1787 30.5427C48.2795 28.2091 48.3299 27.5007 48.3299 21.5C48.3299 15.4993 48.2795 14.7909 48.1787 12.4573C48.0778 10.2904 47.5736 9.08189 47.2207 8.29013C46.2123 6.24823 44.5485 4.87307 42.078 4.03965C41.1201 3.74795 39.6579 3.33123 37.0361 3.24789C34.2127 3.16455 33.3556 3.12287 26.0953 3.12287ZM26.0953 29.9593C31.7422 29.9593 36.3303 26.1672 36.3303 21.5C36.3303 16.8328 31.7422 13.0407 26.0953 13.0407C20.4484 13.0407 15.8603 16.8328 15.8603 21.5C15.8603 26.1672 20.4484 29.9593 26.0953 29.9593ZM26.0953 10.6654C33.3556 10.6654 39.2041 15.4993 39.2041 21.5C39.2041 27.5007 33.3556 32.3346 26.0953 32.3346C18.835 32.3346 12.9865 27.5007 12.9865 21.5C12.9865 15.4993 18.835 10.6654 26.0953 10.6654ZM42.8343 10.2487C42.8343 11.6655 41.4226 12.749 39.7083 12.749C37.9941 12.749 36.6832 11.6655 36.6832 10.2487C36.6832 8.83186 37.9941 7.66506 39.7083 7.66506C41.4226 7.66506 42.8343 8.83186 42.8343 10.2487Z" fill="#34623F"/>
</svg>
