<svg width="80" height="80" viewBox="0 0 80 80" fill="none" xmlns="http://www.w3.org/2000/svg">
<path d="M80 68.6257L62.2345 56.829C68.9131 55.6488 73.3338 54.4105 73.3338 54.4105L58.3903 42.503C63.3945 41.361 66.6676 40.2125 66.6676 40.2125L54.0841 27.6409C57.6703 26.4607 60 25.303 60 25.303L39.9986 0.396027L20 25.303C20 25.303 22.3297 26.4607 25.9145 27.6409L13.3338 40.2125C13.3338 40.2125 16.6055 41.361 21.6083 42.5016L6.66621 54.4105C6.66621 54.4105 11.0869 55.6488 17.7641 56.829L0 68.6257C0 68.6257 13.8662 71.868 30.6662 72.862V79.604H49.3338V72.862C66.1324 71.868 80 68.6257 80 68.6257Z" fill="#34623F"/>
</svg>
